<svg width="32" height="32" viewBox="0 0 32 32" fill="none" xmlns="http://www.w3.org/2000/svg">
<rect width="32" height="32" rx="8" fill="#507DBC"/>
<path d="M12.1 25.2125C10.8833 24.6875 9.825 23.975 8.925 23.075C8.025 22.175 7.3125 21.1167 6.7875 19.9C6.2625 18.6833 6 17.3833 6 16C6 14.1 6.49583 12.3458 7.4875 10.7375C8.47917 9.12917 9.825 7.9 11.525 7.05C11.5417 7.36667 11.575 7.6875 11.625 8.0125C11.675 8.3375 11.7583 8.71667 11.875 9.15C10.675 9.88333 9.72917 10.8542 9.0375 12.0625C8.34583 13.2708 8 14.5833 8 16C8 18.2333 8.775 20.125 10.325 21.675C11.875 23.225 13.7667 24 16 24C18.2333 24 20.125 23.225 21.675 21.675C23.225 20.125 24 18.2333 24 16C24 14.5833 23.6542 13.2667 22.9625 12.05C22.2708 10.8333 21.3167 9.85833 20.1 9.125C20.2167 8.69167 20.3 8.3125 20.35 7.9875C20.4 7.6625 20.4417 7.35 20.475 7.05C22.175 7.9 23.5208 9.125 24.5125 10.725C25.5042 12.325 26 14.0833 26 16C26 17.3833 25.7375 18.6833 25.2125 19.9C24.6875 21.1167 23.975 22.175 23.075 23.075C22.175 23.975 21.1167 24.6875 19.9 25.2125C18.6833 25.7375 17.3833 26 16 26C14.6167 26 13.3167 25.7375 12.1 25.2125ZM11.75 20.25C10.5833 19.0833 10 17.6667 10 16C10 15.0333 10.2125 14.125 10.6375 13.275C11.0625 12.425 11.6667 11.7167 12.45 11.15C12.5333 11.4 12.625 11.6875 12.725 12.0125C12.825 12.3375 12.9583 12.7417 13.125 13.225C12.7583 13.6083 12.4792 14.0333 12.2875 14.5C12.0958 14.9667 12 15.4667 12 16C12 17.1 12.3917 18.0417 13.175 18.825C13.9583 19.6083 14.9 20 16 20C17.1 20 18.0417 19.6083 18.825 18.825C19.6083 18.0417 20 17.1 20 16C20 15.4667 19.9042 14.9667 19.7125 14.5C19.5208 14.0333 19.2417 13.6083 18.875 13.225C19.0083 12.825 19.1292 12.4542 19.2375 12.1125C19.3458 11.7708 19.4417 11.45 19.525 11.15C20.3083 11.7167 20.9167 12.425 21.35 13.275C21.7833 14.125 22 15.0333 22 16C22 17.6667 21.4167 19.0833 20.25 20.25C19.0833 21.4167 17.6667 22 16 22C14.3333 22 12.9167 21.4167 11.75 20.25ZM15 12.5C14.3833 10.6333 13.9792 9.32083 13.7875 8.5625C13.5958 7.80417 13.5 7.11667 13.5 6.5C13.5 5.8 13.7417 5.20833 14.225 4.725C14.7083 4.24167 15.3 4 16 4C16.7 4 17.2917 4.24167 17.775 4.725C18.2583 5.20833 18.5 5.8 18.5 6.5C18.5 7.11667 18.4042 7.80417 18.2125 8.5625C18.0208 9.32083 17.6167 10.6333 17 12.5H15ZM14.5875 17.4125C14.1958 17.0208 14 16.55 14 16C14 15.45 14.1958 14.9792 14.5875 14.5875C14.9792 14.1958 15.45 14 16 14C16.55 14 17.0208 14.1958 17.4125 14.5875C17.8042 14.9792 18 15.45 18 16C18 16.55 17.8042 17.0208 17.4125 17.4125C17.0208 17.8042 16.55 18 16 18C15.45 18 14.9792 17.8042 14.5875 17.4125Z" fill="white"/>
</svg>
